<?xml version="1.0" standalone="no"?>
<!DOCTYPE svg PUBLIC "-//W3C//DTD SVG 20010904//EN"
 "http://www.w3.org/TR/2001/REC-SVG-20010904/DTD/svg10.dtd">
<svg version="1.0" xmlns="http://www.w3.org/2000/svg"
 width="500.000000pt" height="500.000000pt" viewBox="0 0 500.000000 500.000000"
 preserveAspectRatio="xMidYMid meet">
<metadata>
Created by potrace 1.11, written by Peter Selinger 2001-2013
</metadata>
<g transform="translate(0.000000,500.000000) scale(0.100000,-0.100000)"
fill="#000000" stroke="none">
<path d="M0 2500 l0 -2500 2500 0 2500 0 0 2500 0 2500 -2500 0 -2500 0 0
-2500z m2782 1931 c209 -36 416 -119 593 -236 107 -72 188 -144 181 -162 -8
-21 -177 -233 -185 -233 -4 0 -18 12 -32 26 -46 49 -174 140 -264 186 -191 97
-332 132 -540 131 -197 0 -331 -31 -512 -118 -216 -105 -423 -315 -517 -529
-31 -70 -76 -210 -76 -237 0 -19 16 -19 1060 -19 l1060 0 0 -155 0 -155 -460
0 -460 0 0 -495 c0 -274 4 -495 9 -495 4 0 48 7 97 15 211 37 417 134 583 274
l54 45 49 -54 c28 -30 72 -80 99 -112 l49 -56 -57 -52 c-216 -192 -527 -332
-835 -375 l-48 -6 0 -590 0 -589 -160 0 -160 0 -2 597 -3 596 -86 18 c-278 57
-518 188 -725 393 -205 203 -329 434 -391 726 -25 120 -25 420 0 540 58 271
175 495 362 689 228 237 514 385 840 435 136 21 342 20 477 -3z"/>
<path d="M1422 2873 c22 -143 75 -283 154 -411 58 -93 232 -271 324 -331 110
-71 264 -138 383 -165 l27 -6 0 485 0 485 -448 0 -449 0 9 -57z"/>
</g>
</svg>
