<?xml version="1.0" encoding="utf-8"?>
<!-- Generator: Adobe Illustrator 19.0.0, SVG Export Plug-In . SVG Version: 6.00 Build 0)  -->
<svg version="1.1" id="Layer_1" xmlns="http://www.w3.org/2000/svg" xmlns:xlink="http://www.w3.org/1999/xlink" x="0px" y="0px"
	 viewBox="0 0 500 500" style="enable-background:new 0 0 500 500;" xml:space="preserve">
<style type="text/css">
.st1{fill:#bdb9b5;}
</style>
<g id="XMLID_1_">
	<g id="XMLID_2_">
		<g id="XMLID_3_">
			<path id="XMLID_19_" class="st1" d="M423.3,322.8h-10.1H408c-0.5-2.5-1.2-4.3-2.2-5.3c-1.6-1.6-4.4-2.5-8.3-2.5c-3.8,0-6.4,0.6-7.9,1.9
				c-1.1,0.9-1.7,2.3-1.7,3.9c0,2.3,3.2,4.2,9.6,5.6c7.3,1.6,12.5,2.9,15.7,4.1c0.8,0.3,1.6,0.6,2.1,0.8c6.5,3.1,9.7,7.7,9.7,13.9
				c0,7.6-3.2,13.1-9.4,16.6c-0.8,0.4-1.5,0.8-2.4,1.2c-4.1,1.7-8.8,2.6-14.1,2.6c-8,0-14.4-1.4-19.3-4.2c-3.1-1.8-5.4-4-6.9-6.8
				c-1.5-2.7-2.3-5.9-2.3-9.5h16c0,2.7,1,4.9,2.9,6.4c2,1.5,5.3,2.3,10,2.3c3.5,0,6.2-0.7,7.9-2.2c1.4-1.2,2-2.4,2-3.9
				c0-2.5-3.2-4.4-9.4-5.8c-9.4-2-15.3-3.6-17.7-4.8c-6.4-3-9.6-7.6-9.6-14.1c0-5.2,1.6-9.5,5-13.1c4.2-4.5,10.5-6.7,18.9-6.7
				c6.9,0,12.4,1,16.6,2.9c0.4,0.2,0.7,0.3,1,0.5c3,1.6,5.3,3.8,6.8,6.5C422.5,315.8,423.3,319,423.3,322.8z"/>
			<path class="st1" d="M415.1,285.5c0-0.3,0-0.6-0.2-0.8c-0.2-0.3-0.4-0.4-0.7-0.5c-0.2-0.1-0.5-0.1-1-0.2h-0.6h-1.8v2.9h1.9c0.2,0,0.4,0,0.5,0
				c0.7,0,1.2-0.2,1.4-0.4C414.9,286.3,415.1,285.9,415.1,285.5z M416.4,283.9c0.3,0.4,0.5,0.9,0.5,1.4c0,0.7-0.3,1.4-0.8,1.9
				c-0.5,0.5-1.2,0.8-2.1,0.9c0.4,0.2,0.6,0.3,0.8,0.5l1.5,2l1.2,1.9h-1.9l-0.9-1.6c-0.6-1-1-1.7-1.5-2.1c0,0-0.1-0.1-0.2-0.2
				l-1.3-0.4h-0.9v4.2h-1.6v-9.9h3.4c0.2,0,0.4,0,0.6,0c0.8,0,1.5,0.1,1.9,0.3C415.6,283.1,416,283.4,416.4,283.9z"/>
			<path class="st1" d="M420.8,287.5c0-1.4-0.3-2.6-1-3.8c-0.7-1.2-1.6-2.2-2.8-2.8c-1.2-0.6-2.5-1-3.7-1c0,0,0,0,0,0c-1.3,0-2.5,0.4-3.7,1
				c-1.2,0.7-2.2,1.6-2.8,2.8c-0.7,1.2-1,2.5-1,3.8c0,1.3,0.4,2.6,1,3.8c0.6,1.2,1.6,2.1,2.8,2.8c1.2,0.7,2.5,1,3.8,1c0,0,0,0,0,0
				c1.3,0,2.6-0.3,3.8-1c1.2-0.7,2.2-1.6,2.8-2.8C420.5,290.1,420.8,288.8,420.8,287.5z M422.4,287.5c0,1.5-0.4,3.1-1.2,4.5
				c-0.8,1.5-1.9,2.6-3.4,3.4c-1.5,0.8-2.9,1.2-4.5,1.2c0,0,0,0,0,0c-1.6,0-3.1-0.4-4.5-1.2c-1.5-0.8-2.6-1.9-3.4-3.4
				c-0.8-1.5-1.2-3-1.2-4.5c0-1.6,0.4-3.2,1.2-4.6c0.8-1.5,2-2.6,3.4-3.4c1.5-0.8,2.9-1.2,4.5-1.2c0,0,0,0,0,0c1.5,0,3,0.4,4.5,1.2
				c1.5,0.8,2.6,1.9,3.4,3.4C422,284.3,422.4,285.9,422.4,287.5z"/>
			<polygon class="st1" id="XMLID_14_" points="332.8,213.1 376,285.1 332.8,285.1 306.6,285.1 265.3,216.3 234,164.2 265.3,145.4 285,133.6 			
				"/>
			<path class="st1" d="M364.2,335.2v29.5h-14.4v-3.3c-4.8,3.2-10.6,5-16.9,5c-0.1,0-0.1,0-0.2,0c-17.2-0.1-31.1-14.1-31.1-31.3
				c0-17.2,14-31.2,31.1-31.3c0.1,0,0.1,0,0.2,0c6.2,0,12,1.8,16.9,5v-3.4h14.4V335.2z M349.8,338.4v-6.5
				c-1.5-7.9-8.5-13.9-16.9-13.9c-0.1,0-0.1,0-0.2,0c-9.4,0.1-17.1,7.7-17.1,17.2c0,9.4,7.6,17.1,17.1,17.2c0.1,0,0.1,0,0.2,0
				C341.3,352.4,348.3,346.3,349.8,338.4z"/>
			<path class="st1" d="M296.7,335.2v29.5h-14.4v-3.3c-4.9,3.2-10.6,5-16.9,5c0,0-0.1,0-0.2,0c-17.2-0.1-31.1-14.1-31.1-31.3
				c0-17.2,14-31.2,31.1-31.3c0,0,0.1,0,0.2,0c6.2,0,12,1.8,16.9,5v-23.7h14.4V335.2z M282.3,338.4v-6.5
				c-1.5-7.9-8.5-13.9-16.9-13.9c0,0-0.1,0-0.2,0c-9.4,0.1-17.1,7.7-17.1,17.2c0,9.4,7.6,17.1,17.1,17.2c0,0,0.1,0,0.2,0
				C273.7,352.4,280.8,346.3,282.3,338.4z"/>
			<polygon class="st1" id="XMLID_9_" points="265.3,256.8 282.2,285.1 265.3,285.1 212.8,285.1 174.3,221 172.6,218.2 174.3,217.2 223.6,187.5 
							"/>
			<rect class="st1" id="XMLID_8_" x="212.9" y="303.9" width="15.6" height="60.8"/>
			<rect class="st1" id="XMLID_7_" x="212.9" y="285.4" width="15.6" height="13.7"/>
			<path class="st1" d="M205.7,335.2v29.5h-14.4v-3.3c-4.9,3.2-10.7,5-16.9,5c0,0-0.1,0-0.2,0c-17.2-0.1-31.1-14.1-31.1-31.3
				c0-17.2,14-31.2,31.1-31.3c0,0,0.1,0,0.2,0c6.2,0,12,1.8,16.9,5v-23.7h14.4V335.2z M191.3,338.4v-6.5
				c-1.5-7.9-8.5-13.9-16.9-13.9c0,0-0.1,0-0.2,0c-9.4,0.1-17.1,7.7-17.1,17.2c0,9.4,7.6,17.1,17.1,17.2c0,0,0.1,0,0.2,0
				C182.8,352.4,189.8,346.3,191.3,338.4z"/>
			<polygon class="st1" id="XMLID_4_" points="174.3,261.4 188.5,285.1 174.3,285.1 119,285.1 111.2,272.1 162.3,241.5 			"/>
			<path class="st1" d="M137.5,335.2v29.5h-14.4v-3.3c-4.9,3.2-10.7,5-16.9,5c-0.1,0-0.1,0-0.2,0C89,366.3,75,352.3,75,335.2
				c0-17.2,14-31.2,31.1-31.3c0.1,0,0.1,0,0.2,0c6.2,0,12,1.8,16.9,5v-3.4h14.4V335.2z M123.1,338.4v-6.5
				c-1.5-7.9-8.5-13.9-16.9-13.9c-0.1,0-0.1,0-0.2,0c-9.4,0.1-17,7.7-17,17.2c0,9.4,7.6,17.1,17,17.2c0.1,0,0.1,0,0.2,0
				C114.6,352.4,121.6,346.3,123.1,338.4z"/>
		</g>
	</g>
</g>
</svg>
