<?xml version="1.0" encoding="utf-8"?>
<!-- Generator: Adobe Illustrator 19.0.0, SVG Export Plug-In . SVG Version: 6.00 Build 0)  -->
<svg version="1.1" id="Layer_1" xmlns="http://www.w3.org/2000/svg" xmlns:xlink="http://www.w3.org/1999/xlink" x="0px" y="0px"
	 viewBox="0 0 500 500" style="enable-background:new 0 0 500 500;" xml:space="preserve">
<style type="text/css">
	.st1{fill:#bdb9b5;}
</style>
<g id="XMLID_1_">
	<path id="XMLID_5_" class="st1" d="M104.3,274.8c-6.8,0-10-5.2-8.3-11.2c3.5-12.5,26-30.9,41.4-30.9c11.2,0,10.3,10,3.8,18.6
		l-3.6,4C124.5,268,112.5,274.8,104.3,274.8 M159.2,190.7c-19.6,0-41.1,12-54.7,23.3l1.1,1.5c21-14.7,50.2-24.3,58.2-9.9
		c4.2,7.6-3,22.9-13.1,35c2.4-5.3,0.8-15.6-13.3-15.6c-23.5,0-69.8,31.2-69.8,63.1c0,12.8,8.9,21.1,23.5,21.1
		c39.1,0,92.1-64.1,92.1-96.2C183,201.7,176.5,190.7,159.2,190.7"/>
	<path id="XMLID_8_" class="st1" d="M209.5,274.8c-2.3,0-4.2-0.8-5.4-2.2c-1.2-1.5-1.6-3.7-1-5.9c1.3-4.8,6.5-8.6,11.8-8.6h12.6
		l-4.5,16.8H209.5z M245.6,224.6c-3.6-4.4-9.4-6.4-13.6-6.4h-22.9l-3.9,14.5h21.6l2.1,0.2c0,0,2,0.2,3.1,1.7c0.9,1.2,1,3.1,0.4,5.4
		l-1,3.8h-13.6c-11.7,0-28,8.4-31.6,21.9c-1.8,6.8-0.2,12.6,3.3,16.9c3.5,4.3,10.1,6.6,17.2,6.6h12.6h0h16l7.5-28l5.5-20.6
		C250.3,232.6,248,227.5,245.6,224.6"/>
	<path id="XMLID_9_" class="st1" d="M402.6,218.2c-6.2,0-11.9,1.8-16.6,5.3c-4.7,3.5-7.3,7.7-8.9,13.5c-3.4,12.5,6.5,18.6,14.4,22.9
		c5.7,3.1,10.6,5.7,9.5,9.7c-0.8,2.8-2,5.3-9,5.3h-21.3l-3.9,14.5h23.6c6.3,0,12.2-1.3,16.9-4.9c4.7-3.6,7.4-8.7,9-14.9
		c1.6-5.9,0.5-11.5-3.3-15.7c-3.1-3.5-7.7-6-11.7-8.1c-5.1-2.8-9.9-5.4-9.1-8.5c0.5-1.9,2.4-4.6,6.5-4.6h20.8l3.9-14.5H402.6z"/>
	<path id="XMLID_10_" class="st1" d="M278.8,218.2c-6.2,0-11.9,1.8-16.6,5.3c-4.7,3.5-7.3,7.7-8.9,13.5
		c-3.4,12.5,6.5,18.6,14.4,22.9c5.7,3.1,10.6,5.7,9.5,9.7c-0.8,2.8-2,5.3-9,5.3h-21.3l-3.9,14.5h23.6c6.3,0,12.2-1.3,16.9-4.9
		c4.7-3.6,7.4-8.7,9-14.9c1.6-5.9,0.5-11.5-3.3-15.7c-3.1-3.5-7.7-6-11.7-8.1c-5.1-2.8-9.9-5.4-9.1-8.5c0.5-1.9,2.4-4.6,6.5-4.6
		h20.7l3.9-14.5H278.8z"/>
	<polygon id="XMLID_11_" class="st1" points="311,218.2 292.5,289.3 308.1,289.3 326.6,218.2 	"/>
	<path id="XMLID_12_" class="st1" d="M368.3,218.2c-27.6,0.1-42,18.5-46.6,35.5c-5.4,20.3,5.4,35.5,25.1,35.5h13.2l3.9-14.5h-13.2
		c-7.4,0-17.5-5.8-13.5-21.1c3.3-12.1,15.1-21.1,28.1-21.1h8.4l3.9-14.5L368.3,218.2L368.3,218.2z"/>
	<path id="XMLID_17_" class="st1" d="M422.5,286h1.4v-3.1h1.1c0.7,0,1.2,0.1,1.5,0.2c0.5,0.3,0.7,0.9,0.7,1.8v0.6l0,0.3l0,0.1l0,0.1
		h1.3l0-0.1c0-0.1,0-0.2-0.1-0.4c0-0.2,0-0.4,0-0.6v-0.6c0-0.4-0.1-0.8-0.4-1.2c-0.3-0.4-0.7-0.7-1.3-0.8c0.5-0.1,0.9-0.2,1.1-0.4
		c0.5-0.3,0.8-0.8,0.8-1.5c0-1-0.4-1.6-1.2-2c-0.5-0.2-1.2-0.3-2.1-0.3h-2.7L422.5,286L422.5,286z M426.4,281.8
		c-0.3,0.1-0.7,0.2-1.3,0.2h-1.2v-2.8h1.2c0.8,0,1.3,0.1,1.7,0.3c0.4,0.2,0.5,0.6,0.5,1.1C427.2,281.2,427,281.6,426.4,281.8
		 M430.4,277.1c-1.4-1.4-3.1-2.1-5-2.1c-2,0-3.6,0.7-5,2.1c-1.4,1.4-2.1,3.1-2.1,5c0,2,0.7,3.7,2.1,5c1.4,1.4,3.1,2.1,5,2.1
		c2,0,3.6-0.7,5-2.1c1.4-1.4,2.1-3.1,2.1-5C432.5,280.2,431.8,278.5,430.4,277.1 M429.7,277.8c1.2,1.2,1.8,2.6,1.8,4.3
		c0,1.7-0.6,3.2-1.8,4.4c-1.2,1.2-2.6,1.8-4.3,1.8c-1.7,0-3.1-0.6-4.3-1.8c-1.2-1.2-1.8-2.7-1.8-4.4c0-1.7,0.6-3.1,1.8-4.3
		c1.2-1.2,2.6-1.8,4.3-1.8C427.1,276,428.5,276.6,429.7,277.8"/>
</g>
</svg>
