<?xml version="1.0" encoding="utf-8"?>
<!-- Generator: Adobe Illustrator 19.0.0, SVG Export Plug-In . SVG Version: 6.00 Build 0)  -->
<svg version="1.1" id="Layer_1" xmlns="http://www.w3.org/2000/svg" xmlns:xlink="http://www.w3.org/1999/xlink" x="0px" y="0px"
	 viewBox="0 0 500 500" style="enable-background:new 0 0 500 500;" xml:space="preserve">
<style type="text/css">
	.st1{fill:#bdb9b5;}
</style>
<g id="XMLID_1_">
	<path id="path2205" class="st1" d="M160,192.5c8.9,0,16.2,7.2,16.2,16.1c0,8.9-7.2,16.2-16.2,16.2H86.2c-8.9,0-16.2-7.2-16.2-16.2
		c0-8.9,7.2-16.1,16.2-16.1H160z"/>
	<path id="path2207" class="st1" d="M152.6,234.9c8.9,0,16.2,7.2,16.2,16.2c0,8.9-7.2,16.1-16.2,16.1h-42c-3.6,0-6.5,2.8-6.7,6.4
		v21.1c0,8.9-7.2,16.1-16.1,16.1c-8.9,0-16.2-7.2-16.2-16.1v-35.8c0-13.2,10.7-23.9,23.9-23.9H152.6z"/>
	<path id="path2209" class="st1" d="M183.5,205.3c0-8.9,7.2-16.2,16.2-16.2c8.9,0,16.2,7.2,16.2,16.2v89.4c0,8.9-7.2,16.2-16.2,16.2
		c-8.9,0-16.2-7.2-16.2-16.2V205.3z"/>
	<path id="path2211" class="st1" d="M382.3,278.8l6.5,0c1.3,0,2.4-1.1,2.4-2.4c0-0.3-0.1-0.6-0.2-0.9l-24.1-40.6l-37.7,65.3
		c-2.9,5-8.1,7.9-13.6,8.1c-0.2,0-0.3,0-0.5,0h-61.4c-13.2,0-23.9-10.7-23.9-23.9v-79.1c0-8.9,7.2-16.2,16.2-16.2
		c8.9,0,16.2,7.2,16.2,16.2v64.1c0,3.6,2.8,6.5,6.4,6.7h34.3c0.9-0.3,3.6-1.2,4.4-2.5l43.1-74.6c3.3-5.6,9.4-9.4,16.3-9.4
		c7,0,13.1,3.8,16.3,9.4l42,70.5c3.1,4.1,5,9.2,5,14.7c0,13.3-10.8,24.2-24.2,24.2h-49c-8.1,0-14.7-6.6-14.7-14.7
		c0-8.1,6.6-14.7,14.7-14.7H382.3L382.3,278.8z"/>
</g>
</svg>
