<?xml version="1.0" encoding="utf-8"?>
<!-- Generator: Adobe Illustrator 19.0.0, SVG Export Plug-In . SVG Version: 6.00 Build 0)  -->
<svg version="1.1" id="Layer_1" xmlns="http://www.w3.org/2000/svg" xmlns:xlink="http://www.w3.org/1999/xlink" x="0px" y="0px"
	 viewBox="0 0 500 500" style="enable-background:new 0 0 500 500;" xml:space="preserve">
<style type="text/css">
	.st1{fill:#bdb9b5;}
</style>
<g id="XMLID_20_">
	<polygon class="st1" id="XMLID_22_" points="81.2,320.6 161.2,318.9 151.1,337.5 70,338.1 	"/>
	<polygon class="st1" id="XMLID_26_" points="91.4,299.8 104.3,279.6 184.3,277.3 171.9,300.4 	"/>
	<polygon class="st1" id="XMLID_27_" points="138.1,219.3 148.8,197.5 243.3,195.2 246.2,223.3 	"/>
	<polygon class="st1" id="XMLID_28_" points="170.2,161.9 162.9,179.4 238.9,180.5 237.2,163.6 	"/>
	<path class="st1" id="XMLID_32_" d="M424,174.3c-6.6-11.7-32.1-9.8-61.3-9.9c-34.5-0.2-71.4,1.3-75.4,0.4l-8.4,20.3l50.7,5.6l-2.3,1.7
		l-53.4,3.9l-16.4,28.2l48.3,8l-177.3,5.7l-12.8,21.8l175.8,4.9l-106.5,12.6l10.7,25.3l78.2,3.5l-77.6,6.6l7.3,24.8l129.4-1.1
		c32.3,0.1,100.3-52.7,49-87.2C440.9,222.2,432.5,193.9,424,174.3z M289.5,297l19.1-34.3C363.2,260.1,336.2,311.8,289.5,297z
		 M331.3,227.7l15.5-30.3C391,195.2,369.1,240.9,331.3,227.7z"/>
</g>
</svg>
